<?xml version="1.0" encoding="utf-8"?>
<!-- Generator: Adobe Illustrator 23.0.5, SVG Export Plug-In . SVG Version: 6.00 Build 0)  -->
<svg version="1.1" xmlns="http://www.w3.org/2000/svg" xmlns:xlink="http://www.w3.org/1999/xlink" x="0px" y="0px"
	 viewBox="0 0 283.5 283.5" style="enable-background:new 0 0 283.5 283.5;" xml:space="preserve">
<style type="text/css">
	.st0{fill:#E5737B;}
	.st1{fill:#3A3A77;}
	.st2{fill:none;stroke:#FFFFFF;stroke-width:20;stroke-linecap:round;stroke-linejoin:round;stroke-miterlimit:10;}
	.st3{display:none;}
	.st4{display:inline;fill:#FFFFFF;}
	.st5{display:inline;}
	.st6{fill:#0D522C;}
	.st7{fill:#FFFFFF;stroke:#FFFFFF;stroke-width:10;stroke-linecap:round;stroke-linejoin:round;}
	
		.st8{fill-rule:evenodd;clip-rule:evenodd;fill:#FFFFFF;stroke:#FFFFFF;stroke-width:10;stroke-linecap:round;stroke-linejoin:round;}
	.st9{fill:#3A3A77;stroke:#3A3A77;stroke-width:10;stroke-linecap:round;stroke-linejoin:round;}
	.st10{fill-rule:evenodd;clip-rule:evenodd;fill:#E5737B;}
	.st11{fill:#FFFFFF;stroke:#3A3A77;stroke-width:10;stroke-linecap:round;stroke-linejoin:round;}
	.st12{fill:#FFFFFF;stroke:#FF0050;stroke-width:2.592;stroke-miterlimit:10;}
	.st13{fill-rule:evenodd;clip-rule:evenodd;fill:#3A3A77;}
</style>
<g id="guides">
</g>
<g id="logo_1_">
</g>
<g id="logo_x5F_favicon" class="st3">
</g>
<g id="favicon">
	<circle class="st8" cx="144.7" cy="167.8" r="46.2"/>
	<g>
		<line class="st11" x1="144.7" y1="142.2" x2="144.7" y2="193.5"/>
		<line class="st11" x1="119" y1="167.8" x2="170.3" y2="167.8"/>
	</g>
	<path class="st13" d="M144.1,27.7c-9.9,0-18.1,0-24.6,0.9c-6.9,0.9-13.1,3-18.1,8s-7,11.2-8,18.1c-0.9,6.5-0.9,14.8-0.9,24.6v0.9
		c-22.2,0.7-35.5,3.3-44.8,12.6c-12.9,12.9-12.9,33.6-12.9,75s0,62.2,12.9,75c12.9,12.9,33.6,12.9,75,12.9h44c41.4,0,62.2,0,75-12.9
		c12.9-12.9,12.9-33.6,12.9-75s0-62.2-12.9-75c-9.3-9.3-22.6-11.9-44.8-12.6v-0.9c0-9.9,0-18.1-0.9-24.6c-0.9-6.9-3-13.1-8-18.1
		c-5-5-11.2-7-18.1-8c-6.5-0.9-14.8-0.9-24.6-0.9H144.1z M180.4,79.9L180.4,79.9c0-10.6,0-17.7-0.7-23c-0.7-5.1-1.9-7.2-3.3-8.7
		c-1.4-1.4-3.6-2.6-8.7-3.3c-5.3-0.7-12.4-0.7-23-0.7s-17.7,0-23,0.7c-5.1,0.7-7.2,1.9-8.7,3.3c-1.4,1.4-2.6,3.6-3.3,8.7
		c-0.7,5.3-0.7,12.4-0.7,23v0c4.3,0,8.9,0,13.7,0h44C171.5,79.9,176.1,79.9,180.4,79.9z M188.6,167.8c0,24.3-19.7,44-44,44
		c-24.3,0-44-19.7-44-44s19.7-44,44-44C168.9,123.9,188.6,143.6,188.6,167.8z"/>
</g>
<g id="Layer_7">
</g>
</svg>
