<?xml version="1.0" encoding="utf-8"?>
<!-- Generator: Adobe Illustrator 23.0.5, SVG Export Plug-In . SVG Version: 6.00 Build 0)  -->
<svg version="1.1" xmlns="http://www.w3.org/2000/svg" xmlns:xlink="http://www.w3.org/1999/xlink" x="0px" y="0px"
	 viewBox="0 0 283.5 283.5" style="enable-background:new 0 0 283.5 283.5;" xml:space="preserve">
<style type="text/css">
	.st0{fill:#E5737B;}
	.st1{fill:#3A3A77;}
	.st2{fill:none;stroke:#FFFFFF;stroke-width:20;stroke-linecap:round;stroke-linejoin:round;stroke-miterlimit:10;}
	.st3{display:none;}
	.st4{display:inline;fill:#FFFFFF;}
	.st5{display:inline;}
	.st6{fill:#0D522C;}
	.st7{fill:#FFFFFF;stroke:#FFFFFF;stroke-width:10;stroke-linecap:round;stroke-linejoin:round;}
	
		.st8{fill-rule:evenodd;clip-rule:evenodd;fill:#FFFFFF;stroke:#FFFFFF;stroke-width:10;stroke-linecap:round;stroke-linejoin:round;}
	.st9{fill:#3A3A77;stroke:#3A3A77;stroke-width:10;stroke-linecap:round;stroke-linejoin:round;}
	.st10{fill-rule:evenodd;clip-rule:evenodd;fill:#E5737B;}
	.st11{fill:#FFFFFF;stroke:#3A3A77;stroke-width:10;stroke-linecap:round;stroke-linejoin:round;}
	.st12{fill:#FFFFFF;stroke:#FF0050;stroke-width:2.592;stroke-miterlimit:10;}
	.st13{fill-rule:evenodd;clip-rule:evenodd;fill:#3A3A77;}
</style>
<g id="guides">
</g>
<g id="logo_1_">
</g>
<g id="logo_x5F_favicon" class="st3">
</g>
<g id="favicon">
	<circle class="st7" cx="141.7" cy="141.7" r="108.3"/>
	<path class="st1" d="M255.9,141.6c0,63.1-51.1,114.2-114.2,114.2c-63.1,0-114.2-51.1-114.2-114.2S78.7,27.4,141.7,27.4
		S255.9,78.5,255.9,141.6L255.9,141.6z M209.9,130.5c0-12.6-10.3-22.9-22.9-22.9c-12.6,0-22.9,10.3-22.9,22.9c0,10.4,7,19.4,17,22.1
		v21.9c-0.4,16-13.6,28.8-29.7,28.4c-15.5-0.3-28-12.9-28.4-28.4v-4.8c18.8-2.9,32.6-19.1,32.6-38.1v-30.9c0-5.7-2.7-11.1-7.3-14.5
		c-0.1-7.1-5.9-12.8-13.1-12.7c-7.1,0.1-12.8,5.9-12.7,13.1c0.1,7.1,5.9,12.8,13.1,12.7c2.5,0,4.9-0.8,7-2.2c0.8,1,1.2,2.3,1.2,3.6
		v30.9c0,14.7-12,26.7-26.7,26.7s-26.7-12-26.7-26.7v-30.9c0-1.4,0.5-2.8,1.4-3.9c5.7,4.3,13.8,3.1,18.1-2.6s3.1-13.8-2.6-18.1
		S93.5,73,89.2,78.7c-1.5,2-2.4,4.4-2.6,7c-5.1,3.3-8.1,9-8.1,15v30.9c0,19,13.9,35.1,32.6,38.1v4.8c0,22.6,18.3,40.9,40.9,40.9
		s40.9-18.3,40.9-40.9v-21.9C202.9,149.9,209.9,140.9,209.9,130.5L209.9,130.5z M198,130.5c0,6.1-5,11.1-11.1,11.1
		s-11.1-5-11.1-11.1c0-6.1,5-11.1,11.1-11.1C193.1,119.4,198,124.4,198,130.5z"/>
</g>
<g id="Layer_7">
</g>
</svg>
