<?xml version="1.0" encoding="utf-8"?>
<!-- Generator: Adobe Illustrator 23.0.5, SVG Export Plug-In . SVG Version: 6.00 Build 0)  -->
<svg version="1.1" xmlns="http://www.w3.org/2000/svg" xmlns:xlink="http://www.w3.org/1999/xlink" x="0px" y="0px"
	 viewBox="0 0 283.5 283.5" style="enable-background:new 0 0 283.5 283.5;" xml:space="preserve">
<style type="text/css">
	.st0{display:none;}
	
		.st1{display:inline;fill:none;stroke:#0D522C;stroke-width:5.6693;stroke-linecap:round;stroke-linejoin:round;stroke-miterlimit:10;}
	.st2{fill:#CA2461;}
	.st3{fill:#DB6612;}
	.st4{display:inline;fill:#FFFFFF;}
	.st5{display:inline;}
	.st6{fill:#0D522C;}
	.st7{fill:#FFFFFF;stroke:#CA2461;stroke-width:3;stroke-linecap:round;stroke-linejoin:round;stroke-miterlimit:10;}
	.st8{fill:#FFFFFF;stroke:#CA2461;stroke-width:5;stroke-linecap:round;stroke-linejoin:round;stroke-miterlimit:10;}
	.st9{fill:#CA2461;stroke:#CA2461;stroke-miterlimit:10;}
	.st10{fill:#CA2461;stroke:#CA2461;stroke-width:1.600000e-04;}
	.st11{fill-rule:evenodd;clip-rule:evenodd;fill:#DB6612;}
</style>
<g id="guides">
</g>
<g id="base" class="st0">
</g>
<g id="logo" class="st0">
</g>
<g id="logo_1_">
	<path class="st2" d="M93.4,181.7L66.3,154c-19.3-20.6-13.8-37.7-13.8-37.7s3.5-13.5,20-14.6s20.9,17.1,20.9,17.1
		s4.3-18.2,20.9-17.1s20,14.6,20,14.6s5.5,17.1-13.8,37.7L93.4,181.7z"/>
</g>
<g id="logo_x5F_favicon" class="st0">
</g>
<g id="favicon">
	<path class="st10" d="M253.7,82.6v119.6c0,11.1-9,20.2-20.2,20.2H49.9c-11.1,0-20.2-9-20.2-20.2V82.6c0-11.1,9-20.2,20.2-20.2
		h183.6C244.7,62.4,253.7,71.5,253.7,82.6z M249.5,46.5H33.9c-11.1,0-20.2,9-20.2,20.2v151.6c0,11.1,9,20.2,20.2,20.2h215.6
		c11.1,0,20.2-9,20.2-20.2V66.6C269.7,55.5,260.7,46.5,249.5,46.5z"/>
	<path class="st10" d="M165.4,101.7h64c4.4,0,8,3.6,8,8v0c0,4.4-3.6,8-8,8h-64c-4.4,0-8-3.6-8-8v0
		C157.4,105.3,161,101.7,165.4,101.7z"/>
	<path class="st10" d="M165.4,133.7h64c4.4,0,8,3.6,8,8v0c0,4.4-3.6,8-8,8h-64c-4.4,0-8-3.6-8-8v0
		C157.4,137.3,161,133.7,165.4,133.7z"/>
	<path class="st10" d="M165.4,165.7h16c4.4,0,8,3.6,8,8v0c0,4.4-3.6,8-8,8h-16c-4.4,0-8-3.6-8-8v0
		C157.4,169.3,161,165.7,165.4,165.7z"/>
</g>
</svg>
