<?xml version="1.0" encoding="utf-8"?>
<!-- Generator: Adobe Illustrator 23.0.5, SVG Export Plug-In . SVG Version: 6.00 Build 0)  -->
<svg version="1.1" xmlns="http://www.w3.org/2000/svg" xmlns:xlink="http://www.w3.org/1999/xlink" x="0px" y="0px"
	 viewBox="0 0 283.5 283.5" style="enable-background:new 0 0 283.5 283.5;" xml:space="preserve">
<style type="text/css">
	.st0{display:none;}
	
		.st1{display:inline;fill:none;stroke:#0D522C;stroke-width:5.6693;stroke-linecap:round;stroke-linejoin:round;stroke-miterlimit:10;}
	.st2{fill:#CA2461;}
	.st3{fill:#DB6612;}
	.st4{display:inline;fill:#FFFFFF;}
	.st5{display:inline;}
	.st6{fill:#0D522C;}
	.st7{fill:#FFFFFF;stroke:#CA2461;stroke-width:3;stroke-linecap:round;stroke-linejoin:round;stroke-miterlimit:10;}
	.st8{fill:#FFFFFF;stroke:#CA2461;stroke-width:5;stroke-linecap:round;stroke-linejoin:round;stroke-miterlimit:10;}
	.st9{fill:#CA2461;stroke:#CA2461;stroke-miterlimit:10;}
	.st10{fill:#CA2461;stroke:#CA2461;stroke-width:1.600000e-04;}
	.st11{fill-rule:evenodd;clip-rule:evenodd;fill:#DB6612;}
</style>
<g id="guides">
</g>
<g id="base" class="st0">
</g>
<g id="logo" class="st0">
</g>
<g id="logo_1_">
</g>
<g id="logo_x5F_favicon" class="st0">
	
		<image style="display:inline;overflow:visible;" width="450" height="450" xlink:href="../../../../../153213459-concienciación-sobre-el-cáncer-de-mama-plantilla-de-vector-de-logotipo-de-cinta.jpg"  transform="matrix(1 0 0 1 -306.9009 -98.9367)">
	</image>
</g>
<g id="favicon">
	<g>
		<path class="st9" d="M162.3,142.4c48,40.2,110.8,55.9,110.8,55.9s-36.7,9.9-63.5,2.2c0,0,3.5,18.7,33.4,37.4
			c0,0-48.3,1.9-100.6-66.1"/>
		<path class="st9" d="M122,141.7c-34.7-58.1-18.9-81.4-0.3-90.8c13-6.5,28.4-6.5,41.4,0c18.7,9.4,34.5,32.9-0.8,91.5
			c-6.6,11-13.3,20.8-19.9,29.4c-52.6,68.6-101.9,66.1-101.9,66.1c29.9-18.7,33.4-37.4,33.4-37.4c-26.8,7.7-63.5-2.2-63.5-2.2
			s111.9-27.9,151.2-104.9c10.4-20.3,3.4-27.8-8.8-32.2c-8.8-3.2-18.6-2-26,3.6c-7.1,5.4-11.9,14.7-4.8,28.6
			c5.4,10.6,12.1,20.2,19.8,29"/>
	</g>
</g>
</svg>
