<?xml version="1.0" encoding="utf-8"?>
<!-- Generator: Adobe Illustrator 23.0.5, SVG Export Plug-In . SVG Version: 6.00 Build 0)  -->
<svg version="1.1" xmlns="http://www.w3.org/2000/svg" xmlns:xlink="http://www.w3.org/1999/xlink" x="0px" y="0px"
	 viewBox="0 0 283.5 283.5" style="enable-background:new 0 0 283.5 283.5;" xml:space="preserve">
<style type="text/css">
	.st0{display:none;}
	
		.st1{display:inline;fill:none;stroke:#0D522C;stroke-width:5.6693;stroke-linecap:round;stroke-linejoin:round;stroke-miterlimit:10;}
	.st2{fill:#CA2461;}
	.st3{fill:#DB6612;}
	.st4{display:inline;fill:#FFFFFF;}
	.st5{display:inline;}
	.st6{fill:#0D522C;}
	.st7{fill:#FFFFFF;stroke:#CA2461;stroke-width:3;stroke-linecap:round;stroke-linejoin:round;stroke-miterlimit:10;}
	.st8{fill:#FFFFFF;stroke:#CA2461;stroke-width:5;stroke-linecap:round;stroke-linejoin:round;stroke-miterlimit:10;}
	.st9{fill:#CA2461;stroke:#CA2461;stroke-miterlimit:10;}
	.st10{fill:#CA2461;stroke:#CA2461;stroke-width:1.600000e-04;}
	.st11{fill-rule:evenodd;clip-rule:evenodd;fill:#DB6612;}
</style>
<g id="guides">
</g>
<g id="base" class="st0">
</g>
<g id="logo" class="st0">
</g>
<g id="logo_1_">
</g>
<g id="logo_x5F_favicon" class="st0">
</g>
<g id="favicon">
	<g id="SVGRepo_iconCarrier">
		<g>
			<g>
				<path class="st2" d="M169.4,162.5c-2.7,1.9-5.7,3.5-8.7,4.8c-2.5,1.1-5.1,1.9-7.7,2.5l-11,21.6l-11.2-21.6
					c-2.6-0.6-5.2-1.5-7.8-2.5c-3.1-1.3-6-2.9-8.7-4.8C94,175.1,79.7,201,78,231.5c-0.2,3.4,2.5,6.2,5.8,6.2h115.9
					c3.4,0,6-2.8,5.8-6.2C203.8,201.1,189.5,175.1,169.4,162.5z"/>
				<path class="st2" d="M164.8,141.3c-4.4-4.6-9.2-10.9-14.2-18.8c-1.4-2.2-2.7-4.4-4-6.5c-2.3-3.8-7.7-3.8-10-0.1
					c-1.3,2.1-2.7,4.4-4.1,6.6c-5.1,7.8-9.9,14.2-14.2,18.7c-2.8,3-5.4,5.2-7.9,6.9c-0.3,0.2-0.7,0.4-1,0.6c3.2,4,7.2,7.4,11.7,10
					c6.1,3.5,13.2,5.5,20.7,5.5s14.6-2,20.7-5.5c4.5-2.6,8.4-5.9,11.6-9.9C171.1,147.3,168,144.7,164.8,141.3z"/>
				<path class="st2" d="M181.2,144.5c0.6,0.1,1.2,0.2,1.8,0.2c0,0,12.9-31.2-6.3-52.9l-0.4,0.6l-0.4,0.6l-2,2.9l-1.9,2.8l-5.8-5.2
					c0,0-2.5-2.2-6.6-4.3c-3.9-2.1-10.2-4.5-17.5-4.5c-5.8,0-11.5,1.5-17.2,4.3c-4.2,2.2-6.8,4.4-7,4.5l-5.7,5.2l-2.1-3.1l-2-2.9
					l-0.3-0.5l-0.6-0.8c-19.4,21.7-6.5,53.1-6.5,53.1c0.6,0,1.2-0.1,1.8-0.2c1-0.3,2.1-0.7,3.2-1.3c10.5-5.9,23.9-27.8,31.1-40.6
					c2.3-4,8-4,10.2,0.1c7,12.9,20.2,34.9,31.2,40.7C179.1,143.9,180.1,144.3,181.2,144.5z"/>
				<path class="st2" d="M110.1,84.1l0.8,1.2l1.1,1.6l0.8,1.2l0.3,0.5c0,0,3.3-3,8.9-5.8c2.5-1.3,5.6-2.5,9-3.4
					c3.3-0.9,6.9-1.4,10.8-1.4s7.5,0.6,10.8,1.4c3.4,0.9,6.4,2.1,9,3.4c5.6,2.8,8.9,5.8,8.9,5.8l0.3-0.4l0.8-1.2l1.1-1.6l0.8-1.2
					l1.9-2.8l8.3-12.1c1.7-2.4,1.3-5.7-0.9-7.6c-6.3-5.7-20.5-15.9-41-15.9c-20.5,0-34.8,10.3-41,15.9c-2.2,2-2.6,5.2-0.9,7.6
					l8.2,12L110.1,84.1z M132.4,62c0-1.3,1-2.3,2.3-2.3h4v-4c0-1.3,1-2.3,2.3-2.3h1.4c1.3,0,2.3,1,2.3,2.3v4h4c1.3,0,2.3,1,2.3,2.3
					v1.4c0,1.3-1,2.3-2.3,2.3h-4v4c0,1.3-1,2.3-2.3,2.3h-1.4c-1.3,0-2.3-1-2.3-2.3v-4h-4c-1.3,0-2.3-1-2.3-2.3V62z"/>
			</g>
		</g>
	</g>
</g>
</svg>
