<?xml version="1.0" encoding="utf-8"?>
<!-- Generator: Adobe Illustrator 23.0.5, SVG Export Plug-In . SVG Version: 6.00 Build 0)  -->
<svg version="1.1" xmlns="http://www.w3.org/2000/svg" xmlns:xlink="http://www.w3.org/1999/xlink" x="0px" y="0px"
	 viewBox="0 0 283.5 283.5" style="enable-background:new 0 0 283.5 283.5;" xml:space="preserve">
<style type="text/css">
	.st0{fill:#FFFFFF;}
	.st1{fill:#9191E6;}
	.st2{fill:#3A3A77;}
	.st3{fill:none;stroke:#FFFFFF;stroke-width:20;stroke-linecap:round;stroke-linejoin:round;stroke-miterlimit:10;}
	.st4{display:none;}
	.st5{display:inline;fill:#FFFFFF;}
	.st6{display:inline;}
	.st7{fill:#0D522C;}
	.st8{fill:#FFFFFF;stroke:#FFFFFF;stroke-width:10;stroke-linecap:round;stroke-linejoin:round;}
	
		.st9{fill-rule:evenodd;clip-rule:evenodd;fill:#FFFFFF;stroke:#FFFFFF;stroke-width:10;stroke-linecap:round;stroke-linejoin:round;}
	.st10{fill:#3A3A77;stroke:#3A3A77;stroke-width:10;stroke-linecap:round;stroke-linejoin:round;}
	.st11{fill-rule:evenodd;clip-rule:evenodd;fill:#9191E6;}
	.st12{fill:#FFFFFF;stroke:#3A3A77;stroke-width:10;stroke-linecap:round;stroke-linejoin:round;}
	.st13{fill:#FFFFFF;stroke:#FF0050;stroke-width:2.592;stroke-miterlimit:10;}
	.st14{fill-rule:evenodd;clip-rule:evenodd;fill:#3A3A77;}
</style>
<g id="guides">
</g>
<g id="Layer_6">
	<path class="st0" d="M214.9,237.7H67c-29.8,0-54-24.2-54-54v-84c0-29.8,24.2-54,54-54h147.9c29.8,0,54,24.2,54,54v84
		C268.9,213.5,244.7,237.7,214.9,237.7z"/>
</g>
<g id="logo_1_">
	<path class="st1" d="M141.7,203.1l-36.2-37C79.7,138.7,87,115.8,87,115.8s4.6-18,26.7-19.5s27.9,22.9,27.9,22.9s5.8-24.3,27.9-22.9
		s26.7,19.5,26.7,19.5s7.3,22.9-18.5,50.3L141.7,203.1z"/>
</g>
<g id="logo_x5F_favicon" class="st4">
</g>
<g id="favicon">
	<path class="st11" d="M13,77.8c0-17.7,14.3-32,32-32h191.9c17.7,0,32,14.3,32,32v128c0,17.7-14.3,32-32,32H45
		c-17.7,0-32-14.3-32-32V77.8z M45,61.8c-8.8,0-16,7.2-16,16v3.5l51.7,31c-2.3,5.2-3.5,10.8-3.7,16.4L29,99.9v91.5l55.2-34
		c2.3,4.4,5.3,8.9,8.8,13.4l-63.5,39.1c1.9,7,8.2,11.9,15.5,11.9h191.9c7.2,0,13.6-4.9,15.5-11.9l-63.5-39.1
		c3.5-4.5,6.5-8.9,8.8-13.4l55.2,34V99.9l-48,28.8c-0.2-5.7-1.5-11.2-3.7-16.4l51.7-31v-3.5c0-8.8-7.2-16-16-16H45z"/>
</g>
<g id="Layer_7">
</g>
</svg>
