<?xml version="1.0" encoding="utf-8"?>
<!-- Generator: Adobe Illustrator 23.0.5, SVG Export Plug-In . SVG Version: 6.00 Build 0)  -->
<svg version="1.1" xmlns="http://www.w3.org/2000/svg" xmlns:xlink="http://www.w3.org/1999/xlink" x="0px" y="0px"
	 viewBox="0 0 283.5 283.5" style="enable-background:new 0 0 283.5 283.5;" xml:space="preserve">
<style type="text/css">
	.st0{fill:#FFFFFF;}
	.st1{fill:#9191E6;}
	.st2{fill:none;stroke:#FFFFFF;stroke-width:20;stroke-linecap:round;stroke-linejoin:round;stroke-miterlimit:10;}
	.st3{display:none;}
	.st4{display:inline;fill:#FFFFFF;}
	.st5{display:inline;}
	.st6{fill:#0D522C;}
	.st7{fill:#FFFFFF;stroke:#FFFFFF;stroke-width:10;stroke-linecap:round;stroke-linejoin:round;}
	
		.st8{fill-rule:evenodd;clip-rule:evenodd;fill:#FFFFFF;stroke:#FFFFFF;stroke-width:10;stroke-linecap:round;stroke-linejoin:round;}
	.st9{fill:#3A3A77;stroke:#3A3A77;stroke-width:10;stroke-linecap:round;stroke-linejoin:round;}
	.st10{fill-rule:evenodd;clip-rule:evenodd;fill:#9191E6;}
	.st11{fill:#3A3A77;}
	.st12{fill:#FFFFFF;stroke:#3A3A77;stroke-width:10;stroke-linecap:round;stroke-linejoin:round;}
	.st13{fill:#FFFFFF;stroke:#FF0050;stroke-width:2.592;stroke-miterlimit:10;}
	.st14{fill-rule:evenodd;clip-rule:evenodd;fill:#3A3A77;}
</style>
<g id="guides">
</g>
<g id="Layer_6">
</g>
<g id="logo_1_">
	<path class="st1" d="M142.4,27.4c63.2,0,114.4,51.2,114.4,114.4c0,63.2-51.2,114.4-114.4,114.4C79.2,256.1,28,204.9,28,141.7
		C28,78.6,79.2,27.4,142.4,27.4z"/>
	<path class="st2" d="M58.9,150.2l41.8,0.1c1.1,0,2-0.7,2.4-1.7l18.9-59.1c0.8-2.5,4.5-2.2,4.9,0.4l14,92.3c0.4,2.6,3.9,2.9,4.8,0.5
		l22.5-61c0.8-2.2,4-2.2,4.7,0.1l8.6,26.9c0.3,1,1.3,1.7,2.4,1.7l34.6,0.8"/>
</g>
<g id="logo_x5F_favicon" class="st3">
	<circle class="st4" cx="141.7" cy="142" r="114.4"/>
	<g class="st5">
		<path class="st6" d="M141.4,245.3l-63.1-64.4C33.3,133,46.1,93.2,46.1,93.2s8.1-31.4,46.6-33.9c38.6-2.5,48.7,39.8,48.7,39.8
			s10.1-42.4,48.7-39.8c38.6,2.5,46.6,33.9,46.6,33.9s12.7,39.8-32.2,87.7L141.4,245.3z"/>
	</g>
</g>
<g id="favicon">
</g>
<g id="Layer_7">
</g>
</svg>
