<?xml version="1.0" encoding="utf-8"?>
<!-- Generator: Adobe Illustrator 23.0.5, SVG Export Plug-In . SVG Version: 6.00 Build 0)  -->
<svg version="1.1" xmlns="http://www.w3.org/2000/svg" xmlns:xlink="http://www.w3.org/1999/xlink" x="0px" y="0px"
	 viewBox="0 0 283.5 283.5" style="enable-background:new 0 0 283.5 283.5;" xml:space="preserve">
<style type="text/css">
	.st0{display:none;}
	
		.st1{display:inline;fill:none;stroke:#0D522C;stroke-width:5.6693;stroke-linecap:round;stroke-linejoin:round;stroke-miterlimit:10;}
	.st2{fill:#EF2973;}
	.st3{fill:#DB6612;}
	.st4{display:inline;fill:#FFFFFF;}
	.st5{display:inline;}
	.st6{fill:#0D522C;}
	.st7{fill:#FFFFFF;stroke:#EF2973;stroke-width:3;stroke-linecap:round;stroke-linejoin:round;stroke-miterlimit:10;}
	.st8{fill:#FFFFFF;stroke:#EF2973;stroke-width:5;stroke-linecap:round;stroke-linejoin:round;stroke-miterlimit:10;}
	.st9{fill:#EF2973;stroke:#EF2973;stroke-miterlimit:10;}
	.st10{fill:#EF2973;stroke:#EF2973;stroke-width:1.600000e-04;}
	.st11{fill-rule:evenodd;clip-rule:evenodd;fill:#DB6612;}
</style>
<g id="guides">
</g>
<g id="base" class="st0">
</g>
<g id="logo" class="st0">
</g>
<g id="logo_1_">
</g>
<g id="logo_x5F_favicon" class="st0">
</g>
<g id="favicon">
	<path class="st3" d="M141.7,46.5c-26,0-29.3,0.1-39.6,0.6c-10.2,0.5-17.2,2.1-23.3,4.5c-6.4,2.4-12.2,6.2-17,11.1
		c-4.9,4.8-8.7,10.6-11.1,17c-2.4,6.1-4,13.1-4.5,23.3c-0.5,10.3-0.6,13.5-0.6,39.6c0,26.1,0.1,29.3,0.6,39.6
		c0.5,10.2,2.1,17.2,4.5,23.3c2.5,6.3,5.7,11.7,11.1,17c5.3,5.3,10.7,8.6,17,11.1c6.1,2.4,13.1,4,23.3,4.5
		c10.2,0.5,13.5,0.6,39.6,0.6s29.3-0.1,39.6-0.6c10.2-0.5,17.2-2.1,23.3-4.5c6.4-2.4,12.2-6.2,17-11.1c5.3-5.3,8.6-10.7,11.1-17
		c2.4-6.1,4-13.1,4.5-23.3c0.5-10.2,0.6-13.5,0.6-39.6s-0.1-29.3-0.6-39.6c-0.5-10.2-2.1-17.2-4.5-23.3c-2.4-6.4-6.2-12.2-11.1-17
		c-4.8-4.9-10.6-8.7-17-11.1c-6.1-2.4-13.1-4-23.3-4.5C171,46.6,167.8,46.5,141.7,46.5L141.7,46.5z M133.1,63.8h8.6
		c25.6,0,28.7,0.1,38.8,0.6c9.4,0.4,14.4,2,17.8,3.3c4.5,1.7,7.7,3.8,11,7.2c3.4,3.4,5.4,6.5,7.2,11c1.3,3.4,2.9,8.5,3.3,17.8
		c0.5,10.1,0.6,13.1,0.6,38.8s-0.1,28.7-0.6,38.8c-0.4,9.4-2,14.4-3.3,17.8c-1.5,4.2-4,7.9-7.2,11c-3.4,3.4-6.5,5.4-11,7.2
		c-3.4,1.3-8.4,2.9-17.8,3.3c-10.1,0.5-13.1,0.6-38.8,0.6s-28.7-0.1-38.8-0.6c-9.4-0.4-14.4-2-17.8-3.3c-4.2-1.5-7.9-4-11-7.2
		c-3.2-3.1-5.6-6.9-7.2-11c-1.3-3.4-2.9-8.5-3.3-17.8c-0.5-10.1-0.6-13.1-0.6-38.8s0.1-28.6,0.6-38.8c0.4-9.4,2-14.4,3.3-17.8
		c1.7-4.5,3.8-7.7,7.2-11s6.5-5.4,11-7.2c3.4-1.3,8.5-2.9,17.8-3.3C111.8,63.9,115.2,63.7,133.1,63.8L133.1,63.8z M193,79.7
		c-6.4,0-11.5,5.2-11.5,11.5s5.2,11.5,11.5,11.5l0,0c6.4,0,11.5-5.2,11.5-11.5S199.3,79.7,193,79.7 M141.7,93.1
		c-27.2-0.4-49.6,21.3-50.1,48.5s21.3,49.6,48.5,50.1c0.5,0,1,0,1.5,0c27.2-0.4,48.9-22.8,48.5-50.1
		C189.8,115,168.4,93.6,141.7,93.1 M141.7,110.4c17.7,0,32,14.3,32,32s-14.3,32-32,32c0,0,0,0,0,0c-17.7,0-32-14.3-32-32
		S124.1,110.4,141.7,110.4"/>
</g>
</svg>
