<?xml version="1.0" encoding="utf-8"?>
<!-- Generator: Adobe Illustrator 23.0.5, SVG Export Plug-In . SVG Version: 6.00 Build 0)  -->
<svg version="1.1" xmlns="http://www.w3.org/2000/svg" xmlns:xlink="http://www.w3.org/1999/xlink" x="0px" y="0px"
	 viewBox="0 0 283.5 283.5" style="enable-background:new 0 0 283.5 283.5;" xml:space="preserve">
<style type="text/css">
	.st0{fill:#FFFFFF;}
	.st1{fill:#9191E6;}
	.st2{fill:#3A3A77;}
	.st3{fill:none;stroke:#FFFFFF;stroke-width:20;stroke-linecap:round;stroke-linejoin:round;stroke-miterlimit:10;}
	.st4{display:none;}
	.st5{display:inline;fill:#FFFFFF;}
	.st6{display:inline;}
	.st7{fill:#0D522C;}
	.st8{fill:#FFFFFF;stroke:#FFFFFF;stroke-width:10;stroke-linecap:round;stroke-linejoin:round;}
	
		.st9{fill-rule:evenodd;clip-rule:evenodd;fill:#FFFFFF;stroke:#FFFFFF;stroke-width:10;stroke-linecap:round;stroke-linejoin:round;}
	.st10{fill:#3A3A77;stroke:#3A3A77;stroke-width:10;stroke-linecap:round;stroke-linejoin:round;}
	.st11{fill-rule:evenodd;clip-rule:evenodd;fill:#9191E6;}
	.st12{fill:#FFFFFF;stroke:#3A3A77;stroke-width:10;stroke-linecap:round;stroke-linejoin:round;}
	.st13{fill:#FFFFFF;stroke:#FF0050;stroke-width:2.592;stroke-miterlimit:10;}
	.st14{fill-rule:evenodd;clip-rule:evenodd;fill:#3A3A77;}
</style>
<g id="guides">
</g>
<g id="Layer_6">
	<path class="st0" d="M161.2,238.4h-39c-42.4,0-76.8-34.4-76.8-76.8v-39c0-42.4,34.4-76.8,76.8-76.8h39c42.4,0,76.8,34.4,76.8,76.8
		v39C238,204,203.7,238.4,161.2,238.4z"/>
</g>
<g id="logo_1_">
</g>
<g id="logo_x5F_favicon" class="st4">
</g>
<g id="favicon">
	<path class="st1" d="M141.7,45.8c-26.1,0-29.4,0.1-39.7,0.6c-10.3,0.5-17.3,2.1-23.4,4.5c-6.4,2.4-12.3,6.2-17.1,11.1
		c-4.9,4.8-8.7,10.6-11.1,17.1c-2.4,6.1-4,13.1-4.5,23.4c-0.5,10.3-0.6,13.6-0.6,39.7c0,26.1,0.1,29.4,0.6,39.7
		c0.5,10.3,2.1,17.3,4.5,23.4c2.5,6.3,5.8,11.7,11.1,17.1c5.3,5.4,10.7,8.7,17,11.1c6.1,2.4,13.1,4,23.4,4.5
		c10.3,0.5,13.6,0.6,39.7,0.6s29.4-0.1,39.7-0.6c10.2-0.5,17.3-2.1,23.4-4.5c6.4-2.4,12.2-6.2,17-11.1c5.4-5.4,8.6-10.7,11.1-17.1
		c2.4-6.1,4-13.1,4.5-23.4c0.5-10.3,0.6-13.5,0.6-39.7s-0.1-29.4-0.6-39.7C237,92.1,235.4,85.1,233,79c-2.4-6.4-6.2-12.3-11.1-17.1
		c-4.8-4.9-10.6-8.7-17.1-11.1c-6.1-2.4-13.1-4-23.4-4.5C171.1,45.9,167.9,45.8,141.7,45.8L141.7,45.8z M133.1,63.1h8.6
		c25.7,0,28.8,0.1,38.9,0.6c9.4,0.4,14.5,2,17.9,3.3c4.5,1.7,7.7,3.8,11.1,7.2c3.4,3.4,5.5,6.6,7.2,11.1c1.3,3.4,2.9,8.5,3.3,17.9
		c0.5,10.1,0.6,13.2,0.6,38.9s-0.1,28.8-0.6,38.9c-0.4,9.4-2,14.5-3.3,17.9c-1.6,4.2-4,8-7.2,11.1c-3.4,3.4-6.6,5.5-11.1,7.2
		c-3.4,1.3-8.5,2.9-17.9,3.3c-10.1,0.5-13.2,0.6-38.9,0.6s-28.8-0.1-38.9-0.6c-9.4-0.4-14.5-2-17.9-3.3c-4.2-1.5-8-4-11.1-7.2
		c-3.2-3.1-5.7-6.9-7.2-11.1c-1.3-3.4-2.9-8.5-3.3-17.9c-0.5-10.1-0.6-13.2-0.6-38.9s0.1-28.7,0.6-38.9c0.4-9.4,2-14.5,3.3-17.9
		c1.7-4.5,3.8-7.7,7.2-11.1c3.4-3.4,6.6-5.5,11.1-7.2c3.4-1.3,8.5-2.9,17.9-3.3C111.7,63.2,115.1,63.1,133.1,63.1L133.1,63.1z
		 M193.1,79.1c-6.4,0-11.6,5.2-11.6,11.6c0,6.4,5.2,11.6,11.6,11.6l0,0c6.4,0,11.6-5.2,11.6-11.6C204.7,84.3,199.5,79.1,193.1,79.1
		 M141.7,92.6c-27.3-0.4-49.8,21.4-50.2,48.7c-0.4,27.3,21.4,49.8,48.7,50.2c0.5,0,1,0,1.5,0c27.3-0.4,49.1-22.9,48.7-50.2
		C190,114.6,168.5,93,141.7,92.6 M141.7,110c17.7,0,32.1,14.4,32.1,32.1c0,17.7-14.4,32.1-32.1,32.1c0,0,0,0,0,0
		c-17.7,0-32.1-14.4-32.1-32.1S124,110,141.7,110"/>
</g>
<g id="Layer_7">
</g>
</svg>
